HIERARCHY
ROOT pelvis
{
  OFFSET 0 100 0
  CHANNELS 6 Xposition Yposition Zposition Zrotation Xrotation Yrotation
  JOINT pelvis_right_femur
  {
    OFFSET -10.78128 -3.44521 -0.5502486
    CHANNELS 3 Zrotation Xrotation Yrotation
    JOINT right_femur_tibia
    {
      OFFSET -0.8047443 -44.0398 -0.1307829
      CHANNELS 3 Zrotation Xrotation Yrotation
      JOINT right_tibia_foot
      {
        OFFSET 3.006224 -47.83518 -5
        CHANNELS 3 Zrotation Xrotation Yrotation
        End Site
        {
          OFFSET 0 -5 15
        }
      }
    }
  }
  JOINT pelvis_left_femur
  {
    OFFSET 10.78128 -3.44521 -0.5502486
    CHANNELS 3 Zrotation Xrotation Yrotation
    JOINT left_femur_tibia
    {
      OFFSET 0.8047443 -44.0398 -0.1307829
      CHANNELS 3 Zrotation Xrotation Yrotation
      JOINT left_tibia_foot
      {
        OFFSET -4.370144 -48.10324 -4.275266
        CHANNELS 3 Zrotation Xrotation Yrotation
        End Site
        {
          OFFSET 0 -5 15
        }
      }
    }
  }
  JOINT pelvis_spine1
  {
    OFFSET 0 6.468898 -3.129235
    CHANNELS 3 Zrotation Xrotation Yrotation
    JOINT spine1
    {
      OFFSET 0 23.15396 4.99043
      CHANNELS 3 Zrotation Xrotation Yrotation
      JOINT spine2
      {
        OFFSET 0 20.79997 -5.064912
        CHANNELS 3 Zrotation Xrotation Yrotation
        JOINT neck
        {
          OFFSET 0 14.38658 9.616178
          CHANNELS 3 Zrotation Xrotation Yrotation
          End Site
          {
            OFFSET 0 20 0
          }
        }
      }
      JOINT right_manubrium
      {
        OFFSET -5.722621 16.35077 3.967754
        CHANNELS 3 Zrotation Xrotation Yrotation
        JOINT right_clavicle
        {
          OFFSET -13.16364 1.694482 -4.693211
          CHANNELS 3 Zrotation Xrotation Yrotation
          JOINT right_humerus
          {
            OFFSET -28.5034 -0.3100689 -2.792744
            CHANNELS 3 Zrotation Xrotation Yrotation
            JOINT right_radius
            {
              OFFSET -25.15693 0.02248979 -1.271978
              CHANNELS 3 Zrotation Xrotation Yrotation
              End Site
              {
                OFFSET -15 0 0
              }
            }
          }
        }
      }
      JOINT left_manubrium
      {
        OFFSET 5.722621 16.35077 3.967754
        CHANNELS 3 Zrotation Xrotation Yrotation
        JOINT left_clavicle
        {
          OFFSET 13.16364 1.694482 -4.693211
          CHANNELS 3 Zrotation Xrotation Yrotation
          JOINT left_humerus
          {
            OFFSET 29.39168 -1.063119 -2.237045
            CHANNELS 3 Zrotation Xrotation Yrotation
            JOINT left_radius
            {
              OFFSET 24.59957 -0.9528479 0.9047498
              CHANNELS 3 Zrotation Xrotation Yrotation
              End Site
              {
                OFFSET 15 -0 -0
              }
            }
          }
        }
      }
    }
  }
}
MOTION
Frames: 7
Frame Time: 0.0416666666667
0 103.5113 0 1.266846 -1.029609 0.01734017 2.859705 -17.0801 8.042626 -0 36.39659 -0 -5.685328 -16.10117 -3.591844 -7.091869 11.75304 -22.9899 -0 4.530932 -0 7.272567 -17.98018 25.45736 -2.68307 -3.383503 3.544208 4.007548 7.902612 -10.08424 0.4862076 19.81687 8.836817 4.128874 -28.07492 10.03697 5.356112 -19.02941 12.7827 84.39089 31.31203 -17.54316 -0 0 18.46917 -10.81504 10.02275 4.834142 8.525021 -21.1065 4.318213 -94.80532 19.02805 21.24609 0 0 -4.693135 12.14712 18.86585 -4.999825
0.1969648 103.0508 1.596104 0.4719287 0.3368711 0.005328179 4.270477 -20.95674 8.993351 -0 36.49391 -0 -5.39825 -15.12897 -3.839617 -6.532557 12.03414 -23.08689 -0 4.864249 -0 5.852357 -19.38225 24.97288 -2.632822 -3.15565 3.447839 3.984548 7.897559 -10.00759 0.4286463 19.65675 9.100161 4.411019 -28.02963 10.02904 5.444913 -18.73533 12.78856 84.52349 31.51542 -17.8462 -0 0 17.92686 -10.90577 10.19756 4.996332 8.728494 -21.33215 4.113017 -94.3791 19.07619 20.52014 0 0 -6.42677 12.02014 18.3674 -4.65872
0.2747111 101.6659 4.491132 0.338816 -2.439801 0.06159108 3.130087 -23.6298 1.180616 -0 24.58354 -0 -9.165109 -8.470448 -1.092409 -5.980232 14.44479 -18.33561 -0 6.994838 -0 5.626507 -20.54975 21.09967 -2.5723 -1.960213 3.000998 3.526635 8.721112 -9.862033 0.3244616 19.14332 9.41996 5.175114 -26.30121 9.128578 5.501945 -17.09659 12.48689 86.6605 32.68039 -20.14119 -0 0 13.29682 -14.22929 11.73708 7.538906 8.822128 -22.92597 1.153087 -89.73143 19.58672 14.72882 0 0 -17.19941 9.779882 13.64623 -0.4861207
0.3898485 100.4731 7.916759 -0.2226176 -0.4180644 0.1933482 4.293024 -28.66321 1.672703 -0 20.74046 -0 -8.517657 -6.386251 -0.7984821 -5.862453 14.65184 -17.47925 -0 7.752872 -0 5.977043 -21.45067 20.40275 -2.612513 -1.559878 2.78275 3.369513 8.882533 -9.853131 0.3004642 19.11096 9.523354 5.310715 -25.66988 8.933033 5.137468 -16.62173 12.25475 87.63983 32.42445 -21.15237 -0 0 11.75683 -15.39678 12.04216 8.144941 8.959687 -23.55174 0.1351252 -87.77173 19.69977 11.99823 0 0 -21.36371 9.344101 12.02553 0.3109381
0.5324262 99.06594 11.97294 -0.1840438 0.6481395 0.5289696 4.675953 -31.61799 0.8161676 -0 15.23556 -0 -8.172085 -3.959094 -0.1247544 -6.301892 15.03678 -16.02707 -0 8.793019 -0 7.829675 -21.37019 20.13448 -2.531454 -1.425838 2.714882 3.467074 8.666546 -9.796654 0.2812765 18.91817 9.770532 5.470786 -25.97099 9.155448 5.124034 -16.52151 12.11157 87.62041 32.59356 -21.49752 -0 0 11.5723 -14.58888 12.0142 7.806191 9.349839 -23.73407 0.2600916 -87.4365 19.70898 11.20033 0 0 -23.23387 10.06725 11.70529 -0.3057056
0.719586 97.345 16.96536 -0.01133974 1.086637 1.103986 4.195208 -33.71284 -1.76425 -0 7.177328 -0 -8.175121 0.5072266 0.6897351 -6.684162 16.10713 -13.38233 -0 10.18704 -0 7.487079 -21.97312 17.96652 -2.429048 -1.357901 2.734736 3.571183 8.480572 -9.712339 0.2797175 18.72499 9.947934 5.58444 -26.33464 9.380814 5.207609 -16.53418 12.01875 87.41283 32.93727 -21.61379 -0 0 11.66952 -13.58148 11.95965 7.433097 9.641295 -23.75962 0.5064082 -87.45942 19.71837 11.04352 0 0 -24.33508 10.82336 11.55913 -0.9176305
0.9988603 95.52414 22.83723 0.05917411 2.073613 1.97588 4.266434 -35.54069 -3.002571 -0 0.4953451 -0 -7.299385 4.794669 0.8967334 -7.026342 17.06013 -11.24273 -0 11.51629 -0 6.404791 -22.36395 15.72948 -2.322966 -1.278811 2.77434 3.625317 8.413329 -9.633896 0.3044076 18.57527 10.00382 5.620417 -26.49302 9.508428 5.255129 -16.5244 11.91409 87.37148 33.29028 -21.81709 -0 0 11.58274 -12.84724 11.97369 7.219929 9.795376 -23.80032 0.5338366 -87.26687 19.75026 10.76771 0 0 -25.57002 11.3688 11.18116 -1.206865
